<svg xmlns="http://www.w3.org/2000/svg" width="1600" height="1200" viewBox="0 0 1600 1200" fill="none">
  <defs>
    <linearGradient id="bg" x1="0" y1="0" x2="1" y2="1">
      <stop offset="0" stop-color="#dfe4e5"/>
      <stop offset="1" stop-color="#eef1f0"/>
    </linearGradient>
    <linearGradient id="glass" x1="0" y1="0" x2="0" y2="1">
      <stop offset="0" stop-color="#ffffff" stop-opacity="0.75"/>
      <stop offset="1" stop-color="#d9dddd" stop-opacity="0.25"/>
    </linearGradient>
    <linearGradient id="green" x1="0" y1="0" x2="1" y2="1">
      <stop offset="0" stop-color="#2f8e68"/>
      <stop offset="1" stop-color="#1f6c4f"/>
    </linearGradient>
    <filter id="blur" x="-10%" y="-10%" width="120%" height="120%">
      <feGaussianBlur stdDeviation="18"/>
    </filter>
  </defs>

  <rect width="1600" height="1200" fill="url(#bg)"/>

  <rect x="130" y="70" width="18" height="1020" fill="#252b2f"/>
  <rect x="380" y="70" width="16" height="1020" fill="#252b2f"/>
  <rect x="700" y="70" width="16" height="1020" fill="#252b2f"/>
  <rect x="1050" y="70" width="14" height="1020" fill="#252b2f"/>

  <rect x="90" y="120" width="1450" height="900" fill="url(#glass)" stroke="#2e3438" stroke-opacity="0.45" stroke-width="2"/>

  <rect x="90" y="260" width="1450" height="4" fill="#9aa2a6" opacity="0.65"/>
  <rect x="90" y="470" width="1450" height="4" fill="#9aa2a6" opacity="0.65"/>
  <rect x="90" y="680" width="1450" height="4" fill="#9aa2a6" opacity="0.65"/>

  <rect x="700" y="780" width="420" height="140" rx="26" fill="url(#green)" opacity="0.9"/>
  <rect x="480" y="810" width="210" height="115" rx="26" fill="url(#green)" opacity="0.8"/>

  <rect x="200" y="820" width="320" height="220" rx="24" fill="#1f2427"/>
  <rect x="1120" y="860" width="380" height="260" rx="24" fill="#1f2427"/>

  <g opacity="0.9">
    <ellipse cx="280" cy="760" rx="30" ry="90" fill="#4e8b59"/>
    <ellipse cx="330" cy="730" rx="34" ry="110" fill="#67a56f"/>
    <ellipse cx="390" cy="750" rx="36" ry="98" fill="#578f5f"/>
    <ellipse cx="1260" cy="790" rx="36" ry="120" fill="#4d8857"/>
    <ellipse cx="1330" cy="760" rx="42" ry="130" fill="#6ca772"/>
    <ellipse cx="1410" cy="810" rx="34" ry="104" fill="#5a955f"/>
  </g>

  <rect x="60" y="170" width="1480" height="10" fill="#ffffff" fill-opacity="0.45" filter="url(#blur)"/>
  <rect x="60" y="370" width="1480" height="8" fill="#ffffff" fill-opacity="0.35" filter="url(#blur)"/>

  <rect x="0" y="0" width="1600" height="1200" fill="#081018" fill-opacity="0.14"/>
</svg>
